<svg xmlns="http://www.w3.org/2000/svg" width="122.33" height="122.33" viewBox="0 0 122.33 122.33"><g transform="translate(-133.835 -262.67)"><g transform="translate(-74.282 116.117)"><path d="M28.5,11C22.33,11,11,28.844,11,58s11.33,47,17.5,47S46,87.156,46,58,34.67,11,28.5,11m0-11C44.24,0,57,25.967,57,58s-12.76,58-28.5,58S0,90.033,0,58,12.76,0,28.5,0Z" transform="translate(208.118 186.858) rotate(-45)" fill="#fff"/><path d="M28.5,11C22.33,11,11,28.844,11,58s11.33,47,17.5,47S46,87.156,46,58,34.67,11,28.5,11m0-11C44.24,0,57,25.967,57,58s-12.76,58-28.5,58S0,90.033,0,58,12.76,0,28.5,0Z" transform="translate(290.142 146.553) rotate(45)" fill="#fff"/></g></g></svg>