<svg xmlns="http://www.w3.org/2000/svg" width="24.89" height="24.89" viewBox="0 0 24.89 24.89"><g transform="translate(-4 -4)"><path d="M28.648,14.007h-1v-.052h-11.2v4.978h7.033a7.473,7.473,0,1,1-2.08-8.065l3.52-3.52a12.432,12.432,0,1,0,3.971,9.1A12.529,12.529,0,0,0,28.648,14.007Z" fill="#ffc107"/><path d="M6.306,10.652l4.089,3A7.452,7.452,0,0,1,22.27,10.869l3.52-3.52a12.42,12.42,0,0,0-19.484,3.3Z" transform="translate(-0.871)" fill="#ff3d00"/><path d="M17.274,37.976a12.387,12.387,0,0,0,8.344-3.231l-3.852-3.259a7.448,7.448,0,0,1-11.513-3.432L6.2,31.181A12.435,12.435,0,0,0,17.274,37.976Z" transform="translate(-0.829 -9.087)" fill="#4caf50"/><path d="M36.2,20.052h-1V20H24v4.978h7.033a7.492,7.492,0,0,1-2.543,3.467h0L32.344,31.7a12.038,12.038,0,0,0,4.1-9.214A12.53,12.53,0,0,0,36.2,20.052Z" transform="translate(-7.555 -6.044)" fill="#1976d2"/></g></svg>